@startuml UC12-Oversigt

skinparam shadowing false
skinparam classAttributeIconSize 0
skinparam monochrome true
skinparam backgroundColor transparent
skinparam style strictuml

package Nuxt {
    class $router <<domain>> {
        + currentRoute
        --
        + push(path) : void
    }

    class $store <<domain>> {
        + state : object
        + getters : object
        --
        + commit(type, payload, options) : Promise
        + dispatch(type, payload) : Promise
    }
}

class index <<controller>> {
    --
    - created() : void
    - retrieve() : void
}
index-->$store

class auth <<domain>> {
    + token : string <<get, set>>
    --
}
$store ---> auth
auth --> $router

class api <<boundary>> {
    --
    + openRidesAll(token) : Promise
}
auth --> api

class axios <<boundary>> {
    --
    + get(url, config) : Promise
}
api -> axios

@enduml
